<svg width="90" height="54" viewBox="0 0 90 54" fill="none" xmlns="http://www.w3.org/2000/svg">
<path d="M64.56 34.1C64.3067 34.1 64.1067 34.0267 63.96 33.88C63.8133 33.72 63.74 33.5133 63.74 33.26V20.7C63.74 20.46 63.8133 20.2667 63.96 20.12C64.12 19.9733 64.3267 19.9 64.58 19.9H71.86C72.1 19.9 72.2867 19.96 72.42 20.08C72.5533 20.2 72.62 20.3733 72.62 20.6C72.62 20.8133 72.5533 20.98 72.42 21.1C72.2867 21.22 72.1 21.28 71.86 21.28H65.36V26.14H71.46C71.7 26.14 71.8867 26.2 72.02 26.32C72.1533 26.44 72.22 26.6133 72.22 26.84C72.22 27.0533 72.1533 27.22 72.02 27.34C71.8867 27.46 71.7 27.52 71.46 27.52H65.36V33.26C65.36 33.5133 65.2867 33.72 65.14 33.88C65.0067 34.0267 64.8133 34.1 64.56 34.1ZM75.4528 34.1C75.2128 34.1 75.0128 34.0333 74.8528 33.9C74.7061 33.7533 74.6328 33.5533 74.6328 33.3V24.86C74.6328 24.6067 74.7061 24.4133 74.8528 24.28C75.0128 24.1333 75.2128 24.06 75.4528 24.06C75.6928 24.06 75.8861 24.1333 76.0328 24.28C76.1795 24.4133 76.2528 24.6067 76.2528 24.86V33.3C76.2528 33.5667 76.1795 33.7667 76.0328 33.9C75.8861 34.0333 75.6928 34.1 75.4528 34.1ZM75.4528 21.96C75.1328 21.96 74.8728 21.8667 74.6728 21.68C74.4728 21.4933 74.3728 21.2467 74.3728 20.94C74.3728 20.6467 74.4728 20.4067 74.6728 20.22C74.8728 20.0333 75.1328 19.94 75.4528 19.94C75.7728 19.94 76.0328 20.0333 76.2328 20.22C76.4328 20.4067 76.5328 20.6467 76.5328 20.94C76.5328 21.2467 76.4328 21.4933 76.2328 21.68C76.0328 21.8667 75.7728 21.96 75.4528 21.96ZM84.1813 24.02C86.5146 24.02 87.6813 25.3067 87.6813 27.88V33.3C87.6813 33.5533 87.6079 33.7533 87.4613 33.9C87.3279 34.0333 87.1346 34.1 86.8813 34.1C86.6279 34.1 86.4279 34.0333 86.2813 33.9C86.1346 33.7533 86.0613 33.5533 86.0613 33.3V27.98C86.0613 27.0733 85.8813 26.4133 85.5213 26C85.1746 25.5867 84.6146 25.38 83.8413 25.38C82.9479 25.38 82.2346 25.6533 81.7013 26.2C81.1679 26.7467 80.9013 27.4867 80.9013 28.42V33.3C80.9013 33.5533 80.8279 33.7533 80.6813 33.9C80.5479 34.0333 80.3546 34.1 80.1013 34.1C79.8479 34.1 79.6479 34.0333 79.5013 33.9C79.3546 33.7533 79.2813 33.5533 79.2813 33.3V24.86C79.2813 24.62 79.3546 24.4267 79.5013 24.28C79.6479 24.1333 79.8479 24.06 80.1013 24.06C80.3413 24.06 80.5279 24.1333 80.6613 24.28C80.8079 24.4267 80.8813 24.6133 80.8813 24.84V25.86C81.2013 25.26 81.6479 24.8067 82.2213 24.5C82.7946 24.18 83.4479 24.02 84.1813 24.02Z" fill="#00C356"/>
<path d="M2.45327 35.8586C1.96004 35.8586 1.57988 35.7163 1.31474 35.4336C1.04961 35.1509 0.917038 34.7533 0.917038 34.2406V23.6241C0.917038 23.0938 1.04961 22.6961 1.31474 22.431C1.57988 22.1659 1.95029 22.0333 2.42598 22.0333C2.91921 22.0333 3.29938 22.1659 3.56452 22.431C3.82965 22.6961 3.96222 23.0938 3.96222 23.6241V25.5988L3.66004 24.9945C4.06165 24.0061 4.6933 23.2576 5.55304 22.7449C6.41279 22.2322 7.38172 21.9768 8.46176 21.9768C9.54181 21.9768 10.4288 22.1737 11.1229 22.5675C11.8169 22.9613 12.3394 23.5597 12.6864 24.3648C13.0334 25.1699 13.2069 26.1934 13.2069 27.4371V34.2406C13.2069 34.7533 13.0744 35.1509 12.8092 35.4336C12.5441 35.7163 12.1542 35.8586 11.6434 35.8586C11.1502 35.8586 10.7661 35.7163 10.4912 35.4336C10.2163 35.1509 10.0799 34.7533 10.0799 34.2406V27.5736C10.0799 26.4955 9.86933 25.7041 9.44823 25.2011C9.02713 24.6982 8.37793 24.4467 7.50064 24.4467C6.45764 24.4467 5.62128 24.7801 4.98963 25.4487C4.35798 26.1174 4.0441 26.9985 4.0441 28.096V34.2406C4.0441 35.3205 3.51382 35.8586 2.45327 35.8586Z" fill="black"/>
<path d="M22.5454 35.9132C21.0637 35.9132 19.7829 35.6305 18.7048 35.0632C17.6247 34.4959 16.7942 33.6908 16.2093 32.6498C15.6225 31.6069 15.3321 30.3827 15.3321 28.9732C15.3321 27.5833 15.6147 26.3669 16.1821 25.324C16.7494 24.281 17.535 23.4623 18.541 22.8677C19.547 22.2731 20.6894 21.9768 21.9702 21.9768C22.9216 21.9768 23.7677 22.1328 24.5085 22.4427C25.2494 22.7546 25.8849 23.1971 26.4152 23.7742C26.9455 24.3512 27.3529 25.0491 27.6356 25.8737C27.9183 26.6983 28.0606 27.6301 28.0606 28.6711C28.0606 28.983 27.9553 29.3358 27.7448 29.5093C27.5342 29.6828 27.2282 29.7706 26.8246 29.7706H17.8255V27.7276H25.8635L25.4248 28.1389C25.4248 27.2617 25.2962 26.5911 25.0408 25.9965C24.7834 25.4019 24.4091 24.9438 23.9159 24.6241C23.4227 24.3044 22.8085 24.1446 22.0775 24.1446C21.2723 24.1446 20.5919 24.3317 20.0343 24.7079C19.4768 25.0842 19.0459 25.6086 18.7457 26.285C18.4435 26.9615 18.2934 27.7568 18.2934 28.6711V28.8641C18.2934 30.4002 18.658 31.5582 19.391 32.334C20.1221 33.1119 21.1924 33.4998 22.5999 33.4998C23.1127 33.4998 23.6644 33.4355 24.259 33.3068C24.8536 33.1781 25.4248 32.95 25.9746 32.6206C26.3216 32.4198 26.6335 32.3321 26.9084 32.3594C27.1833 32.3867 27.4017 32.4822 27.5674 32.6479C27.7311 32.8116 27.8325 33.0183 27.8696 33.2659C27.9066 33.5134 27.8637 33.7649 27.7467 34.0203C27.6278 34.2776 27.4134 34.4959 27.1014 34.6792C26.46 35.1003 25.7251 35.4102 24.8926 35.6129C24.0582 35.8137 23.2764 35.9132 22.5454 35.9132Z" fill="black"/>
<path d="M39.8709 22.0333H45.236V19.5907C45.236 19.078 45.3725 18.6862 45.6474 18.4113C45.9222 18.1364 46.3141 18 46.8268 18C47.3201 18 47.7002 18.1364 47.9654 18.4113C48.2305 18.6862 48.3631 19.0799 48.3631 19.5907V22.0333H51.4083C51.8294 22.0333 52.1491 22.1347 52.3694 22.3355C52.5877 22.5363 52.6989 22.8287 52.6989 23.2127C52.6989 23.5792 52.5897 23.8677 52.3694 24.0763C52.1491 24.2868 51.8294 24.3921 51.4083 24.3921H48.3631V30.5366C48.3631 31.4509 48.5639 32.141 48.9674 32.6089C49.369 33.0748 50.0202 33.3087 50.915 33.3087C51.225 33.3087 51.4999 33.2814 51.7377 33.2268C51.9756 33.1722 52.1861 33.1352 52.3694 33.1177C52.5702 33.1001 52.7398 33.1644 52.8763 33.3106C53.0127 33.4569 53.0829 33.7493 53.0829 34.1879C53.0829 34.5173 53.0283 34.8097 52.9172 35.0651C52.808 35.3224 52.615 35.5037 52.3401 35.6149C52.1023 35.687 51.7962 35.7552 51.4219 35.8195C51.0476 35.8839 50.7123 35.9151 50.4198 35.9151C49.2677 35.9151 48.3026 35.7143 47.5248 35.3107C46.7469 34.9092 46.1718 34.3282 45.7955 33.568C45.4212 32.8097 45.2341 31.8622 45.2341 30.7277V24.3901H39.8689V22.0333H39.8709Z" fill="black"/>
<path d="M35.2756 30.9382L38.4689 34.954C38.7068 35.2288 38.9524 35.4335 39.2098 35.5719C39.4652 35.7103 39.7771 35.7786 40.1436 35.7786C40.5277 35.7786 40.8376 35.6733 41.0755 35.4628C41.3133 35.2522 41.442 34.9773 41.4595 34.6401C41.4771 34.3029 41.3406 33.95 41.0482 33.5835L35.6031 26.9477C35.4433 26.7528 35.143 26.7528 34.9832 26.9477L29.5517 33.5835C29.2593 33.9676 29.117 34.3243 29.1267 34.6537C29.1365 34.9832 29.2632 35.2522 29.5108 35.4628C29.7584 35.6733 30.0645 35.7786 30.431 35.7786C30.815 35.7786 31.1348 35.7103 31.3921 35.5719C31.6475 35.4355 31.8853 35.2288 32.1056 34.954L35.2756 30.9382Z" fill="#9ACEFF"/>
<path d="M37.7088 27.9439L40.7189 24.2556C41.0289 23.8716 41.181 23.5148 41.1712 23.1854C41.1615 22.8559 41.0387 22.5811 40.8008 22.3627C40.563 22.1444 40.253 22.0333 39.8689 22.0333C39.5024 22.0333 39.1964 22.1015 38.9488 22.2399C38.7012 22.3764 38.4594 22.583 38.2216 22.8579L35.9211 25.7664L37.7088 27.9439Z" fill="black"/>
<path d="M34.6851 25.7684L32.4042 22.856C32.1858 22.5811 31.9421 22.3764 31.677 22.238C31.4119 22.0996 31.0863 22.0314 30.7022 22.0314C30.3357 22.0314 30.0335 22.1366 29.7976 22.3472C29.5598 22.5577 29.4311 22.8326 29.4136 23.1698C29.396 23.509 29.5325 23.8599 29.8249 24.2264L32.8604 27.942L34.6851 25.7684Z" fill="black"/>
</svg>
